<mxfile host="app.diagrams.net" modified="2024-05-15T15:32:01.663Z" agent="Mozilla/5.0 (Macintosh; Intel Mac OS X 10_15_7) AppleWebKit/537.36 (KHTML, like Gecko) Chrome/124.0.0.0 Safari/537.36" etag="OAYb3YH0vx7iUvhcsb14" version="24.4.0" type="github">
  <diagram name="Page-1" id="yTE_MTdcGd8XoMPJyux-">
    <mxGraphModel dx="2195" dy="913" grid="1" gridSize="10" guides="1" tooltips="1" connect="1" arrows="1" fold="1" page="1" pageScale="1" pageWidth="827" pageHeight="1169" math="0" shadow="0">
      <root>
        <mxCell id="0" />
        <mxCell id="1" parent="0" />
        <mxCell id="SVt4d5FXb6J8XK-2-Z7e-1" value="" style="rounded=0;whiteSpace=wrap;html=1;direction=south;" parent="1" vertex="1">
          <mxGeometry x="110" y="20" width="300" height="300" as="geometry" />
        </mxCell>
        <mxCell id="SVt4d5FXb6J8XK-2-Z7e-2" value="&lt;font style=&quot;font-size: 14px;&quot;&gt;&lt;b&gt;Available Tables&lt;/b&gt;&lt;/font&gt;" style="rounded=1;whiteSpace=wrap;html=1;" parent="1" vertex="1">
          <mxGeometry x="120" y="40" width="270" height="30" as="geometry" />
        </mxCell>
        <mxCell id="SVt4d5FXb6J8XK-2-Z7e-3" value="Table Number : Occupancy" style="rounded=1;whiteSpace=wrap;html=1;" parent="1" vertex="1">
          <mxGeometry x="120" y="110" width="190" height="30" as="geometry" />
        </mxCell>
        <mxCell id="SVt4d5FXb6J8XK-2-Z7e-4" value="Table Number : Occupancy" style="rounded=1;whiteSpace=wrap;html=1;" parent="1" vertex="1">
          <mxGeometry x="120" y="160" width="190" height="30" as="geometry" />
        </mxCell>
        <mxCell id="SVt4d5FXb6J8XK-2-Z7e-5" value="Table Number : Occupancy" style="rounded=1;whiteSpace=wrap;html=1;" parent="1" vertex="1">
          <mxGeometry x="120" y="210" width="190" height="30" as="geometry" />
        </mxCell>
        <mxCell id="SVt4d5FXb6J8XK-2-Z7e-6" value="Table Number : Occupancy" style="rounded=1;whiteSpace=wrap;html=1;" parent="1" vertex="1">
          <mxGeometry x="120" y="260" width="190" height="30" as="geometry" />
        </mxCell>
        <mxCell id="SVt4d5FXb6J8XK-2-Z7e-8" value="Book" style="rounded=1;whiteSpace=wrap;html=1;" parent="1" vertex="1">
          <mxGeometry x="330" y="110" width="60" height="30" as="geometry" />
        </mxCell>
        <mxCell id="SVt4d5FXb6J8XK-2-Z7e-10" value="Book" style="rounded=1;whiteSpace=wrap;html=1;" parent="1" vertex="1">
          <mxGeometry x="330" y="160" width="60" height="30" as="geometry" />
        </mxCell>
        <mxCell id="SVt4d5FXb6J8XK-2-Z7e-11" value="Book" style="rounded=1;whiteSpace=wrap;html=1;" parent="1" vertex="1">
          <mxGeometry x="330" y="210" width="60" height="30" as="geometry" />
        </mxCell>
        <mxCell id="SVt4d5FXb6J8XK-2-Z7e-12" value="Book" style="rounded=1;whiteSpace=wrap;html=1;" parent="1" vertex="1">
          <mxGeometry x="330" y="260" width="60" height="30" as="geometry" />
        </mxCell>
        <mxCell id="SVt4d5FXb6J8XK-2-Z7e-13" value="" style="rounded=0;whiteSpace=wrap;html=1;direction=south;" parent="1" vertex="1">
          <mxGeometry x="440" y="20" width="300" height="310" as="geometry" />
        </mxCell>
        <mxCell id="SVt4d5FXb6J8XK-2-Z7e-14" value="&lt;font style=&quot;font-size: 14px;&quot;&gt;&lt;b&gt;Book Table From&lt;/b&gt;&lt;/font&gt;" style="rounded=1;whiteSpace=wrap;html=1;" parent="1" vertex="1">
          <mxGeometry x="460" y="40" width="260" height="40" as="geometry" />
        </mxCell>
        <mxCell id="SVt4d5FXb6J8XK-2-Z7e-15" value="Table Id" style="rounded=1;whiteSpace=wrap;html=1;" parent="1" vertex="1">
          <mxGeometry x="460" y="110" width="190" height="40" as="geometry" />
        </mxCell>
        <mxCell id="SVt4d5FXb6J8XK-2-Z7e-16" value="Number of Customer" style="rounded=1;whiteSpace=wrap;html=1;" parent="1" vertex="1">
          <mxGeometry x="460" y="170" width="190" height="40" as="geometry" />
        </mxCell>
        <mxCell id="SVt4d5FXb6J8XK-2-Z7e-20" value="Book" style="rounded=1;whiteSpace=wrap;html=1;" parent="1" vertex="1">
          <mxGeometry x="460" y="245" width="260" height="40" as="geometry" />
        </mxCell>
        <mxCell id="SVt4d5FXb6J8XK-2-Z7e-21" value="" style="rounded=0;whiteSpace=wrap;html=1;direction=south;" parent="1" vertex="1">
          <mxGeometry x="-215" y="375" width="300" height="715" as="geometry" />
        </mxCell>
        <mxCell id="SVt4d5FXb6J8XK-2-Z7e-22" value="&lt;font style=&quot;font-size: 14px;&quot;&gt;&lt;b&gt;Table Details&lt;/b&gt;&lt;/font&gt;" style="rounded=1;whiteSpace=wrap;html=1;" parent="1" vertex="1">
          <mxGeometry x="-197.5" y="390" width="260" height="40" as="geometry" />
        </mxCell>
        <mxCell id="SVt4d5FXb6J8XK-2-Z7e-23" value="Order No" style="rounded=1;whiteSpace=wrap;html=1;" parent="1" vertex="1">
          <mxGeometry x="-200" y="470" width="160" height="40" as="geometry" />
        </mxCell>
        <mxCell id="SVt4d5FXb6J8XK-2-Z7e-25" value="Order status" style="rounded=1;whiteSpace=wrap;html=1;" parent="1" vertex="1">
          <mxGeometry x="-32.5" y="470" width="100" height="40" as="geometry" />
        </mxCell>
        <mxCell id="SVt4d5FXb6J8XK-2-Z7e-26" value="Order No" style="rounded=1;whiteSpace=wrap;html=1;" parent="1" vertex="1">
          <mxGeometry x="-200" y="540" width="160" height="40" as="geometry" />
        </mxCell>
        <mxCell id="SVt4d5FXb6J8XK-2-Z7e-27" value="Order status" style="rounded=1;whiteSpace=wrap;html=1;" parent="1" vertex="1">
          <mxGeometry x="-30" y="540" width="100" height="40" as="geometry" />
        </mxCell>
        <mxCell id="SVt4d5FXb6J8XK-2-Z7e-38" value="" style="rounded=0;whiteSpace=wrap;html=1;direction=south;" parent="1" vertex="1">
          <mxGeometry x="880" y="10" width="300" height="440" as="geometry" />
        </mxCell>
        <mxCell id="SVt4d5FXb6J8XK-2-Z7e-39" value="&lt;font style=&quot;font-size: 14px;&quot;&gt;&lt;b&gt;Order Details&lt;/b&gt;&lt;/font&gt;" style="rounded=1;whiteSpace=wrap;html=1;" parent="1" vertex="1">
          <mxGeometry x="900" y="30" width="260" height="40" as="geometry" />
        </mxCell>
        <mxCell id="SVt4d5FXb6J8XK-2-Z7e-40" value="Food Item Name : Total Price: Price : Quantity" style="rounded=1;whiteSpace=wrap;html=1;" parent="1" vertex="1">
          <mxGeometry x="900" y="100" width="200" height="40" as="geometry" />
        </mxCell>
        <mxCell id="SVt4d5FXb6J8XK-2-Z7e-41" value="&lt;span style=&quot;color: rgb(0, 0, 0); font-family: Helvetica; font-size: 12px; font-style: normal; font-variant-ligatures: normal; font-variant-caps: normal; font-weight: 400; letter-spacing: normal; orphans: 2; text-align: center; text-indent: 0px; text-transform: none; widows: 2; word-spacing: 0px; -webkit-text-stroke-width: 0px; white-space: normal; background-color: rgb(251, 251, 251); text-decoration-thickness: initial; text-decoration-style: initial; text-decoration-color: initial; display: inline !important; float: none;&quot;&gt;Food Item Name:Total Price :Quantity&amp;nbsp;&lt;/span&gt;" style="rounded=1;whiteSpace=wrap;html=1;" parent="1" vertex="1">
          <mxGeometry x="900" y="160" width="200" height="40" as="geometry" />
        </mxCell>
        <mxCell id="SVt4d5FXb6J8XK-2-Z7e-42" value="Order Place At" style="rounded=1;whiteSpace=wrap;html=1;" parent="1" vertex="1">
          <mxGeometry x="900" y="220" width="200" height="40" as="geometry" />
        </mxCell>
        <mxCell id="SVt4d5FXb6J8XK-2-Z7e-43" value="Order Served At" style="rounded=1;whiteSpace=wrap;html=1;" parent="1" vertex="1">
          <mxGeometry x="901" y="280" width="200" height="40" as="geometry" />
        </mxCell>
        <mxCell id="SVt4d5FXb6J8XK-2-Z7e-44" value="Order Status" style="rounded=1;whiteSpace=wrap;html=1;" parent="1" vertex="1">
          <mxGeometry x="900" y="340" width="200" height="40" as="geometry" />
        </mxCell>
        <mxCell id="SVt4d5FXb6J8XK-2-Z7e-45" value="" style="rounded=0;whiteSpace=wrap;html=1;direction=south;" parent="1" vertex="1">
          <mxGeometry x="113" y="375" width="300" height="545" as="geometry" />
        </mxCell>
        <mxCell id="SVt4d5FXb6J8XK-2-Z7e-46" value="&lt;font style=&quot;font-size: 14px;&quot;&gt;&lt;b&gt;Table Bill&amp;nbsp;&lt;/b&gt;&lt;/font&gt;" style="rounded=1;whiteSpace=wrap;html=1;" parent="1" vertex="1">
          <mxGeometry x="139" y="400" width="240" height="40" as="geometry" />
        </mxCell>
        <mxCell id="SVt4d5FXb6J8XK-2-Z7e-47" value="Table Number" style="rounded=1;whiteSpace=wrap;html=1;" parent="1" vertex="1">
          <mxGeometry x="139" y="485" width="250" height="40" as="geometry" />
        </mxCell>
        <mxCell id="SVt4d5FXb6J8XK-2-Z7e-50" value="Order Number, Food Item Name, price" style="rounded=1;whiteSpace=wrap;html=1;" parent="1" vertex="1">
          <mxGeometry x="139" y="555" width="250" height="40" as="geometry" />
        </mxCell>
        <mxCell id="SVt4d5FXb6J8XK-2-Z7e-51" value="Order Number, Food Item Name, price" style="rounded=1;whiteSpace=wrap;html=1;" parent="1" vertex="1">
          <mxGeometry x="139" y="605" width="250" height="40" as="geometry" />
        </mxCell>
        <mxCell id="SVt4d5FXb6J8XK-2-Z7e-52" value="Order Number, Food Item Name, price" style="rounded=1;whiteSpace=wrap;html=1;" parent="1" vertex="1">
          <mxGeometry x="139" y="665" width="250" height="40" as="geometry" />
        </mxCell>
        <mxCell id="SVt4d5FXb6J8XK-2-Z7e-53" value="Total Payable" style="rounded=1;whiteSpace=wrap;html=1;" parent="1" vertex="1">
          <mxGeometry x="139" y="715" width="250" height="40" as="geometry" />
        </mxCell>
        <mxCell id="SVt4d5FXb6J8XK-2-Z7e-54" value="Payment Status" style="rounded=1;whiteSpace=wrap;html=1;" parent="1" vertex="1">
          <mxGeometry x="139" y="775" width="250" height="40" as="geometry" />
        </mxCell>
        <mxCell id="SVt4d5FXb6J8XK-2-Z7e-68" value="" style="rounded=0;whiteSpace=wrap;html=1;direction=south;" parent="1" vertex="1">
          <mxGeometry x="430" y="380" width="350" height="650" as="geometry" />
        </mxCell>
        <mxCell id="SVt4d5FXb6J8XK-2-Z7e-69" value="&lt;font style=&quot;font-size: 14px;&quot;&gt;&lt;b&gt;Food Menu&lt;/b&gt;&lt;/font&gt;" style="rounded=1;whiteSpace=wrap;html=1;" parent="1" vertex="1">
          <mxGeometry x="440" y="410" width="330" height="40" as="geometry" />
        </mxCell>
        <mxCell id="SVt4d5FXb6J8XK-2-Z7e-70" value="Food Item: Price" style="rounded=1;whiteSpace=wrap;html=1;" parent="1" vertex="1">
          <mxGeometry x="440" y="490" width="160" height="40" as="geometry" />
        </mxCell>
        <mxCell id="SVt4d5FXb6J8XK-2-Z7e-71" value="Food Item: Price" style="rounded=1;whiteSpace=wrap;html=1;" parent="1" vertex="1">
          <mxGeometry x="440" y="550" width="160" height="40" as="geometry" />
        </mxCell>
        <mxCell id="SVt4d5FXb6J8XK-2-Z7e-72" value="Food Item: Price" style="rounded=1;whiteSpace=wrap;html=1;" parent="1" vertex="1">
          <mxGeometry x="440" y="610" width="160" height="40" as="geometry" />
        </mxCell>
        <mxCell id="SVt4d5FXb6J8XK-2-Z7e-73" value="Food Item: Price" style="rounded=1;whiteSpace=wrap;html=1;" parent="1" vertex="1">
          <mxGeometry x="440" y="680" width="160" height="40" as="geometry" />
        </mxCell>
        <mxCell id="SVt4d5FXb6J8XK-2-Z7e-74" value="Food Item: Price" style="rounded=1;whiteSpace=wrap;html=1;" parent="1" vertex="1">
          <mxGeometry x="440" y="750" width="160" height="40" as="geometry" />
        </mxCell>
        <mxCell id="SVt4d5FXb6J8XK-2-Z7e-75" value="Food Item: Price" style="rounded=1;whiteSpace=wrap;html=1;" parent="1" vertex="1">
          <mxGeometry x="440" y="820" width="160" height="40" as="geometry" />
        </mxCell>
        <mxCell id="SVt4d5FXb6J8XK-2-Z7e-77" value="+&amp;nbsp; select qty -&amp;nbsp;" style="rounded=1;whiteSpace=wrap;html=1;" parent="1" vertex="1">
          <mxGeometry x="610" y="490" width="90" height="40" as="geometry" />
        </mxCell>
        <mxCell id="SVt4d5FXb6J8XK-2-Z7e-78" value="+&amp;nbsp; select qty -&amp;nbsp;" style="rounded=1;whiteSpace=wrap;html=1;" parent="1" vertex="1">
          <mxGeometry x="610" y="550" width="90" height="40" as="geometry" />
        </mxCell>
        <mxCell id="SVt4d5FXb6J8XK-2-Z7e-79" value="+&amp;nbsp; select qty -&amp;nbsp;" style="rounded=1;whiteSpace=wrap;html=1;" parent="1" vertex="1">
          <mxGeometry x="610" y="610" width="90" height="40" as="geometry" />
        </mxCell>
        <mxCell id="SVt4d5FXb6J8XK-2-Z7e-80" value="+&amp;nbsp; select qty -&amp;nbsp;" style="rounded=1;whiteSpace=wrap;html=1;" parent="1" vertex="1">
          <mxGeometry x="610" y="680" width="90" height="40" as="geometry" />
        </mxCell>
        <mxCell id="SVt4d5FXb6J8XK-2-Z7e-81" value="+&amp;nbsp; select qty -&amp;nbsp;" style="rounded=1;whiteSpace=wrap;html=1;" parent="1" vertex="1">
          <mxGeometry x="610" y="750" width="90" height="40" as="geometry" />
        </mxCell>
        <mxCell id="SVt4d5FXb6J8XK-2-Z7e-82" value="+&amp;nbsp; select qty -&amp;nbsp;" style="rounded=1;whiteSpace=wrap;html=1;" parent="1" vertex="1">
          <mxGeometry x="610" y="820" width="90" height="40" as="geometry" />
        </mxCell>
        <mxCell id="SVt4d5FXb6J8XK-2-Z7e-87" value="Qty" style="rounded=1;whiteSpace=wrap;html=1;" parent="1" vertex="1">
          <mxGeometry x="710" y="490" width="50" height="40" as="geometry" />
        </mxCell>
        <mxCell id="SVt4d5FXb6J8XK-2-Z7e-89" value="Qty" style="rounded=1;whiteSpace=wrap;html=1;" parent="1" vertex="1">
          <mxGeometry x="710" y="550" width="50" height="40" as="geometry" />
        </mxCell>
        <mxCell id="SVt4d5FXb6J8XK-2-Z7e-90" value="Qty" style="rounded=1;whiteSpace=wrap;html=1;" parent="1" vertex="1">
          <mxGeometry x="710" y="610" width="50" height="40" as="geometry" />
        </mxCell>
        <mxCell id="SVt4d5FXb6J8XK-2-Z7e-91" value="Qty" style="rounded=1;whiteSpace=wrap;html=1;" parent="1" vertex="1">
          <mxGeometry x="710" y="680" width="50" height="40" as="geometry" />
        </mxCell>
        <mxCell id="SVt4d5FXb6J8XK-2-Z7e-92" value="Qty" style="rounded=1;whiteSpace=wrap;html=1;" parent="1" vertex="1">
          <mxGeometry x="710" y="750" width="50" height="40" as="geometry" />
        </mxCell>
        <mxCell id="SVt4d5FXb6J8XK-2-Z7e-93" value="Qty" style="rounded=1;whiteSpace=wrap;html=1;" parent="1" vertex="1">
          <mxGeometry x="710" y="820" width="50" height="40" as="geometry" />
        </mxCell>
        <mxCell id="SVt4d5FXb6J8XK-2-Z7e-94" value="" style="rounded=0;whiteSpace=wrap;html=1;direction=south;" parent="1" vertex="1">
          <mxGeometry x="827" y="485" width="350" height="615" as="geometry" />
        </mxCell>
        <mxCell id="SVt4d5FXb6J8XK-2-Z7e-95" value="&lt;font style=&quot;font-size: 14px;&quot;&gt;&lt;b&gt;Cart&lt;/b&gt;&lt;/font&gt;" style="rounded=1;whiteSpace=wrap;html=1;" parent="1" vertex="1">
          <mxGeometry x="837" y="505" width="330" height="40" as="geometry" />
        </mxCell>
        <mxCell id="SVt4d5FXb6J8XK-2-Z7e-96" value="Food Item: Price" style="rounded=1;whiteSpace=wrap;html=1;" parent="1" vertex="1">
          <mxGeometry x="847" y="585" width="160" height="40" as="geometry" />
        </mxCell>
        <mxCell id="SVt4d5FXb6J8XK-2-Z7e-97" value="+&amp;nbsp; select qty -&amp;nbsp;" style="rounded=1;whiteSpace=wrap;html=1;" parent="1" vertex="1">
          <mxGeometry x="1017" y="585" width="90" height="40" as="geometry" />
        </mxCell>
        <mxCell id="SVt4d5FXb6J8XK-2-Z7e-98" value="Qty" style="rounded=1;whiteSpace=wrap;html=1;" parent="1" vertex="1">
          <mxGeometry x="1117" y="585" width="50" height="40" as="geometry" />
        </mxCell>
        <mxCell id="SVt4d5FXb6J8XK-2-Z7e-99" value="Food Item: Price" style="rounded=1;whiteSpace=wrap;html=1;" parent="1" vertex="1">
          <mxGeometry x="847" y="645" width="160" height="40" as="geometry" />
        </mxCell>
        <mxCell id="SVt4d5FXb6J8XK-2-Z7e-100" value="Food Item: Price" style="rounded=1;whiteSpace=wrap;html=1;" parent="1" vertex="1">
          <mxGeometry x="847" y="765" width="160" height="40" as="geometry" />
        </mxCell>
        <mxCell id="SVt4d5FXb6J8XK-2-Z7e-102" value="Food Item: Price" style="rounded=1;whiteSpace=wrap;html=1;" parent="1" vertex="1">
          <mxGeometry x="847" y="705" width="160" height="40" as="geometry" />
        </mxCell>
        <mxCell id="SVt4d5FXb6J8XK-2-Z7e-103" value="+&amp;nbsp; select qty -&amp;nbsp;" style="rounded=1;whiteSpace=wrap;html=1;" parent="1" vertex="1">
          <mxGeometry x="1017" y="645" width="90" height="40" as="geometry" />
        </mxCell>
        <mxCell id="SVt4d5FXb6J8XK-2-Z7e-104" value="+&amp;nbsp; select qty -&amp;nbsp;" style="rounded=1;whiteSpace=wrap;html=1;" parent="1" vertex="1">
          <mxGeometry x="1017" y="705" width="90" height="40" as="geometry" />
        </mxCell>
        <mxCell id="SVt4d5FXb6J8XK-2-Z7e-105" value="+&amp;nbsp; select qty -&amp;nbsp;" style="rounded=1;whiteSpace=wrap;html=1;" parent="1" vertex="1">
          <mxGeometry x="1017" y="765" width="90" height="40" as="geometry" />
        </mxCell>
        <mxCell id="SVt4d5FXb6J8XK-2-Z7e-106" value="Qty" style="rounded=1;whiteSpace=wrap;html=1;" parent="1" vertex="1">
          <mxGeometry x="1117" y="645" width="50" height="40" as="geometry" />
        </mxCell>
        <mxCell id="SVt4d5FXb6J8XK-2-Z7e-107" value="Qty" style="rounded=1;whiteSpace=wrap;html=1;" parent="1" vertex="1">
          <mxGeometry x="1117" y="705" width="50" height="40" as="geometry" />
        </mxCell>
        <mxCell id="SVt4d5FXb6J8XK-2-Z7e-108" value="Qty" style="rounded=1;whiteSpace=wrap;html=1;" parent="1" vertex="1">
          <mxGeometry x="1117" y="765" width="50" height="40" as="geometry" />
        </mxCell>
        <mxCell id="SVt4d5FXb6J8XK-2-Z7e-109" value="Total Price" style="rounded=1;whiteSpace=wrap;html=1;" parent="1" vertex="1">
          <mxGeometry x="837" y="835" width="330" height="40" as="geometry" />
        </mxCell>
        <mxCell id="SVt4d5FXb6J8XK-2-Z7e-110" value="Place Order" style="rounded=1;whiteSpace=wrap;html=1;" parent="1" vertex="1">
          <mxGeometry x="837" y="890" width="330" height="40" as="geometry" />
        </mxCell>
        <mxCell id="SVt4d5FXb6J8XK-2-Z7e-111" value="Generate Bill" style="rounded=1;whiteSpace=wrap;html=1;" parent="1" vertex="1">
          <mxGeometry x="-200" y="890" width="270" height="40" as="geometry" />
        </mxCell>
        <mxCell id="SVt4d5FXb6J8XK-2-Z7e-113" value="Generate Payment Link" style="rounded=1;whiteSpace=wrap;html=1;" parent="1" vertex="1">
          <mxGeometry x="138" y="835" width="250" height="40" as="geometry" />
        </mxCell>
        <mxCell id="SVt4d5FXb6J8XK-2-Z7e-114" value="Un Book Table" style="rounded=1;whiteSpace=wrap;html=1;" parent="1" vertex="1">
          <mxGeometry x="-30" y="745" width="100" height="40" as="geometry" />
        </mxCell>
        <mxCell id="SVt4d5FXb6J8XK-2-Z7e-116" value="Table Status" style="rounded=1;whiteSpace=wrap;html=1;" parent="1" vertex="1">
          <mxGeometry x="-200" y="745" width="160" height="40" as="geometry" />
        </mxCell>
        <mxCell id="SVt4d5FXb6J8XK-2-Z7e-117" value="Show Menu" style="rounded=1;whiteSpace=wrap;html=1;" parent="1" vertex="1">
          <mxGeometry x="-200" y="960" width="265" height="40" as="geometry" />
        </mxCell>
        <mxCell id="qVFAaHJfhLGyaqpEFxVK-1" value="" style="rounded=0;whiteSpace=wrap;html=1;direction=south;" parent="1" vertex="1">
          <mxGeometry x="-225" y="20" width="310" height="300" as="geometry" />
        </mxCell>
        <mxCell id="qVFAaHJfhLGyaqpEFxVK-2" value="&lt;font style=&quot;font-size: 14px;&quot;&gt;&lt;b&gt;&amp;nbsp;Booked Tables&lt;/b&gt;&lt;/font&gt;" style="rounded=1;whiteSpace=wrap;html=1;" parent="1" vertex="1">
          <mxGeometry x="-205" y="40" width="270" height="30" as="geometry" />
        </mxCell>
        <mxCell id="qVFAaHJfhLGyaqpEFxVK-3" value="Table Number : Occupancy: Booked Time" style="rounded=1;whiteSpace=wrap;html=1;" parent="1" vertex="1">
          <mxGeometry x="-205" y="100" width="190" height="30" as="geometry" />
        </mxCell>
        <mxCell id="qVFAaHJfhLGyaqpEFxVK-4" value="Unbook" style="rounded=1;whiteSpace=wrap;html=1;" parent="1" vertex="1">
          <mxGeometry x="5" y="100" width="60" height="30" as="geometry" />
        </mxCell>
        <mxCell id="qVFAaHJfhLGyaqpEFxVK-5" value="Table Number : Occupancy: Booked Time" style="rounded=1;whiteSpace=wrap;html=1;" parent="1" vertex="1">
          <mxGeometry x="-205" y="150" width="190" height="30" as="geometry" />
        </mxCell>
        <mxCell id="qVFAaHJfhLGyaqpEFxVK-6" value="Table Number : Occupancy: Booked Time" style="rounded=1;whiteSpace=wrap;html=1;" parent="1" vertex="1">
          <mxGeometry x="-205" y="200" width="190" height="30" as="geometry" />
        </mxCell>
        <mxCell id="qVFAaHJfhLGyaqpEFxVK-7" value="Table Number : Occupancy: Booked Time" style="rounded=1;whiteSpace=wrap;html=1;" parent="1" vertex="1">
          <mxGeometry x="-205" y="250" width="190" height="30" as="geometry" />
        </mxCell>
        <mxCell id="qVFAaHJfhLGyaqpEFxVK-8" value="Unbook" style="rounded=1;whiteSpace=wrap;html=1;" parent="1" vertex="1">
          <mxGeometry x="5" y="150" width="60" height="30" as="geometry" />
        </mxCell>
        <mxCell id="qVFAaHJfhLGyaqpEFxVK-9" value="Unbook" style="rounded=1;whiteSpace=wrap;html=1;" parent="1" vertex="1">
          <mxGeometry x="5" y="200" width="60" height="30" as="geometry" />
        </mxCell>
        <mxCell id="qVFAaHJfhLGyaqpEFxVK-10" value="Unbook" style="rounded=1;whiteSpace=wrap;html=1;" parent="1" vertex="1">
          <mxGeometry x="5" y="250" width="60" height="30" as="geometry" />
        </mxCell>
        <mxCell id="ACU_mTZXsHy0IF5izEBg-3" value="Clean Table" style="rounded=1;whiteSpace=wrap;html=1;" vertex="1" parent="1">
          <mxGeometry x="-200" y="820" width="270" height="40" as="geometry" />
        </mxCell>
        <mxCell id="ACU_mTZXsHy0IF5izEBg-5" value="Cancel Order" style="rounded=1;whiteSpace=wrap;html=1;" vertex="1" parent="1">
          <mxGeometry x="900" y="400" width="200" height="40" as="geometry" />
        </mxCell>
        <mxCell id="ACU_mTZXsHy0IF5izEBg-6" value="Bill No" style="rounded=1;whiteSpace=wrap;html=1;" vertex="1" parent="1">
          <mxGeometry x="-197.5" y="600" width="160" height="40" as="geometry" />
        </mxCell>
        <mxCell id="ACU_mTZXsHy0IF5izEBg-7" value="Bill No" style="rounded=1;whiteSpace=wrap;html=1;" vertex="1" parent="1">
          <mxGeometry x="-197.5" y="660" width="160" height="40" as="geometry" />
        </mxCell>
        <mxCell id="ACU_mTZXsHy0IF5izEBg-8" value="Bill Status" style="rounded=1;whiteSpace=wrap;html=1;" vertex="1" parent="1">
          <mxGeometry x="-25" y="600" width="100" height="40" as="geometry" />
        </mxCell>
        <mxCell id="ACU_mTZXsHy0IF5izEBg-9" value="Bill Status" style="rounded=1;whiteSpace=wrap;html=1;" vertex="1" parent="1">
          <mxGeometry x="-25" y="660" width="100" height="40" as="geometry" />
        </mxCell>
        <mxCell id="ACU_mTZXsHy0IF5izEBg-10" value="&lt;span style=&quot;font-size: 14px;&quot;&gt;Place Order&lt;/span&gt;" style="rounded=1;whiteSpace=wrap;html=1;" vertex="1" parent="1">
          <mxGeometry x="440" y="905" width="330" height="40" as="geometry" />
        </mxCell>
        <mxCell id="ACU_mTZXsHy0IF5izEBg-11" value="Show Menu" style="rounded=1;whiteSpace=wrap;html=1;" vertex="1" parent="1">
          <mxGeometry x="842" y="950" width="318" height="40" as="geometry" />
        </mxCell>
        <mxCell id="ACU_mTZXsHy0IF5izEBg-12" value="Show Cart" style="rounded=1;whiteSpace=wrap;html=1;" vertex="1" parent="1">
          <mxGeometry x="-197.5" y="1020" width="265" height="40" as="geometry" />
        </mxCell>
        <mxCell id="ACU_mTZXsHy0IF5izEBg-13" value="&lt;span style=&quot;font-size: 14px;&quot;&gt;Show Cart&lt;/span&gt;" style="rounded=1;whiteSpace=wrap;html=1;" vertex="1" parent="1">
          <mxGeometry x="440" y="960" width="330" height="40" as="geometry" />
        </mxCell>
        <mxCell id="ACU_mTZXsHy0IF5izEBg-14" value="Discard Cart" style="rounded=1;whiteSpace=wrap;html=1;" vertex="1" parent="1">
          <mxGeometry x="841" y="1010" width="318" height="40" as="geometry" />
        </mxCell>
      </root>
    </mxGraphModel>
  </diagram>
</mxfile>
